<svg width="83" height="68" viewBox="0 0 83 68" fill="none" xmlns="http://www.w3.org/2000/svg">
<g clip-path="url(#clip0_256_5653)">
<path d="M22.9897 51.0464L18.3291 51.5989L16.0988 49.9414L14.8081 51.5989L15.4283 55.0958L16.1366 57.8566L20.4383 55.475L23.9027 55.1335L22.9897 51.0464Z" fill="#A0616A"/>
<path d="M46.6045 45.19L35.3551 44.9687L21.6724 51.2658L23.4966 55.576L35.862 51.8183L55.0159 57.7843L52.3811 43.644L46.6045 45.19Z" fill="#2F2E41"/>
<path d="M15.7476 51.4479L17.9842 51.2575L15.14 44.7081C15.14 44.7081 13.8226 44.2002 13.6195 45.7805C13.4165 47.3591 15.1463 58.0539 15.6531 58.0539C16.1599 58.0539 17.8599 56.9729 17.8599 56.9729L15.343 51.7791L15.7491 51.4479L15.7476 51.4479Z" fill="#2F2E41"/>
<path d="M71.8295 49.6547C71.6044 49.6805 71.3589 49.7199 71.0976 49.7783C69.9895 50.0236 69.9675 50.8438 69.9769 51.0308L69.9691 51.0257C69.8573 51.2196 69.7881 51.4169 69.7456 51.6039L69.6952 49.0919C69.7282 49.0181 69.7581 48.9324 69.7833 48.8466C69.8668 49.1245 70.0021 49.387 70.1186 49.3699C70.2713 49.3476 70.3374 48.8586 70.309 48.512C70.5026 48.7831 70.8285 49.0748 70.9512 48.9855C71.0488 48.9135 70.9906 48.6184 70.8836 48.3507C71.1071 48.4982 71.3542 48.5943 71.4313 48.5C71.5368 48.373 71.2849 47.9389 71.0535 47.697C71.3636 47.7278 71.7587 47.6746 71.7839 47.5202C71.8059 47.3933 71.5698 47.2337 71.3196 47.1307C71.5714 47.0587 71.8075 46.9317 71.7996 46.8064C71.7902 46.6572 71.4407 46.5576 71.1385 46.5439C71.3668 46.35 71.5761 46.0806 71.5116 45.9588C71.4533 45.8473 71.1795 45.8902 70.926 45.988C71.0756 45.7546 71.181 45.4921 71.1008 45.4029C71.0016 45.2913 70.6475 45.4835 70.4051 45.698C70.4523 45.3651 70.4287 44.9447 70.2917 44.907C70.1768 44.8744 70.0147 45.1198 69.903 45.3857C69.8542 45.106 69.7534 44.8418 69.6385 44.8418C69.4748 44.8418 69.3426 45.3806 69.3426 45.7306V45.7872C69.3269 45.7666 69.308 45.7443 69.2859 45.722C69.0546 45.4784 68.6091 45.2073 68.4942 45.3342C68.414 45.4235 68.5194 45.686 68.6689 45.9193C68.4155 45.8215 68.1416 45.7769 68.0834 45.8902C68.0047 46.0412 68.3431 46.4152 68.617 46.5971C68.6013 46.5954 68.5824 46.5937 68.5651 46.5919C68.244 46.5679 67.7419 46.676 67.7308 46.8545C67.723 46.9797 67.9591 47.1067 68.2109 47.1788C67.9591 47.2817 67.7245 47.4413 67.7466 47.5683C67.7718 47.7227 68.1668 47.7759 68.4769 47.745C68.2455 47.9869 67.9937 48.421 68.0992 48.548C68.1763 48.6407 68.4234 48.5446 68.6469 48.3987C68.5399 48.6664 68.4816 48.9615 68.5792 49.0336C68.7083 49.128 69.0656 48.7985 69.2529 48.5154C69.234 48.862 69.3096 49.339 69.4607 49.3579C69.5236 49.3665 69.5913 49.2927 69.6511 49.1794L69.4796 51.8802C69.4402 52.1942 69.6952 52.4001 69.7188 52.5288L69.755 54.3578C69.7141 54.2274 69.6574 54.0936 69.5819 53.9615L69.574 53.9666C69.5834 53.7779 69.5614 52.9594 68.4533 52.7141C68.192 52.6557 67.9465 52.6163 67.7214 52.5905C67.4554 52.5596 67.3515 52.956 67.5923 53.0847C67.9402 53.27 68.2676 53.5033 68.4376 53.7796C68.8736 54.4865 69.4748 54.0782 69.5614 54.0147C69.6574 54.188 69.7204 54.363 69.7597 54.5294L69.7786 55.5006C69.7739 55.5229 69.7708 55.5366 69.7708 55.5366L69.7802 55.54L69.8274 57.8907L70.2681 57.8873L70.1107 55.4851C70.1375 55.3547 70.2193 54.9138 70.1107 54.4556L69.9533 52.5682L69.7487 51.827C69.7786 51.597 69.8479 51.3397 69.988 51.084C70.073 51.1475 70.6758 51.5559 71.1118 50.8489C71.2818 50.5727 71.6092 50.3393 71.957 50.154C72.1963 50.0253 72.094 49.629 71.828 49.6599V49.6547L71.8295 49.6547ZM69.8211 55.2158L69.8132 54.804C69.8305 54.9601 69.829 55.0991 69.8211 55.2158Z" fill="#F2F2F2"/>
<path d="M0 57.8429C0 57.9561 0.0834219 58.047 0.187306 58.047H82.3956C82.4995 58.047 82.5829 57.9561 82.5829 57.8429C82.5829 57.7296 82.4995 57.6387 82.3956 57.6387H0.187306C0.0834219 57.6387 0 57.7296 0 57.8429Z" fill="#3F3D56"/>
<path d="M54.5469 30.4579L55.6628 26.3708L58.9053 26.2593L60.2227 31.3416L54.5469 30.4579Z" fill="#A0616A"/>
<path opacity="0.1" d="M54.5469 30.4579L55.6628 26.3708L58.9053 26.2593L60.2227 31.3416L54.5469 30.4579Z" fill="black"/>
<path d="M59.5257 29.8883L54.2559 29.667L52.6221 33.3303L50.1006 49.5536L63.3269 52.812C63.3269 52.812 64.1375 34.6927 62.3132 32.1515C60.489 29.6104 59.5257 29.8866 59.5257 29.8866V29.8883Z" fill="#E6E6E6"/>
<path d="M44.0908 17.1842C43.8704 15.9059 43.0881 14.9914 42.3405 15.1441C41.5928 15.2968 41.1663 16.4567 41.3866 17.7367C41.4685 18.2498 41.6605 18.7319 41.9486 19.1472L42.9417 24.5538L44.9014 24.1197L44.0325 18.7216C44.1632 18.2206 44.1821 17.6938 44.0876 17.1842L44.0908 17.1842Z" fill="#A0616A"/>
<path d="M58.7371 31.3601L47.9741 29.0489L44.9489 19.1313L41.5601 20.0064L44.9599 34.6563L57.1426 36.403L58.7371 31.3601Z" fill="#E6E6E6"/>
<path d="M42.3452 1.29874C42.3342 1.31075 42.3248 1.32105 42.3138 1.33306C40.6847 -0.430824 38.0592 -0.446267 36.4113 1.29874C34.7586 3.0489 34.7019 5.92293 36.2853 7.74859L36.3247 7.7932L42.1564 14.3391L48.2021 7.93904L48.1848 7.92017C48.1942 7.90988 48.2052 7.89958 48.2163 7.88929C49.8863 6.12197 49.924 3.21362 48.3028 1.39483C46.6816 -0.425677 44.0137 -0.466857 42.3452 1.30046V1.29874Z" fill="#1B56BE"/>
<path d="M43.7872 33.7624C43.7684 33.783 43.7495 33.8053 43.7306 33.8258C40.729 30.5795 35.8952 30.5503 32.8605 33.7624C29.8164 36.9864 29.7125 42.2798 32.6292 45.6411L32.7016 45.7252L43.4425 57.7807L54.5754 45.9929L54.5439 45.9586C54.5628 45.9397 54.5817 45.9208 54.6006 45.9019C57.6746 42.647 57.747 37.2918 54.7612 33.9391C51.7753 30.5881 46.8628 30.5091 43.7872 33.7641V33.7624Z" fill="#1B56BE"/>
<path d="M60.2087 47.1995C60.2087 47.1995 64.1862 50.8113 62.7098 53.0024C61.2349 55.1936 56.217 59.116 53.9505 57.8994C51.6839 56.6829 46.9792 47.8909 46.9792 47.8909L45.7484 56.8974L42.528 56.5868C42.528 56.5868 40.189 43.8656 42.3454 41.9147C44.5033 39.9638 54.3251 43.4126 54.3251 43.4126L60.2071 47.2012L60.2087 47.1995Z" fill="#2F2E41"/>
<path d="M43.332 55.3906L42.4096 58.5152L40.4878 61.451L41.9611 63.8549L46.6437 60.4935L46.628 58.764L45.8929 57.6847L45.3735 55.6154L43.332 55.3906Z" fill="#A0616A"/>
<path d="M41.8589 62.6712L40.6831 60.5882L36.6348 66.3345C36.6348 66.3345 36.8221 67.8445 38.204 67.3194C39.586 66.7944 48.1533 62.0072 47.9219 61.5147C47.6905 61.0223 46.7414 58.3765 46.7414 58.3765L42.3153 62.9114L41.8604 62.6695L41.8589 62.6712Z" fill="#2F2E41"/>
<path d="M44.3443 47.1698C43.156 47.2985 42.2541 48.0707 42.3296 48.8943C42.4052 49.7179 43.4283 50.2824 44.6166 50.1537C45.092 50.1091 45.55 49.9409 45.9545 49.6647L50.9803 49.0521L50.7521 46.8867L45.7436 47.3654C45.2982 47.1801 44.8181 47.1132 44.3443 47.1715L44.3443 47.1698Z" fill="#A0616A"/>
<path d="M58.5636 32.4858L55.5226 43.9751L46.1982 46.4047L46.7051 50.1624L60.3878 47.7311L63.0337 34.6512L58.5636 32.4858Z" fill="#E6E6E6"/>
<path d="M56.8719 27.5942C59.2503 27.5942 61.1783 25.4923 61.1783 22.8996C61.1783 20.3069 59.2503 18.2051 56.8719 18.2051C54.4935 18.2051 52.5654 20.3069 52.5654 22.8996C52.5654 25.4923 54.4935 27.5942 56.8719 27.5942Z" fill="#A0616A"/>
<path d="M57.215 16.5871C57.0907 16.6661 56.9238 16.5459 56.8829 16.3949C56.8436 16.244 56.8892 16.0827 56.9364 15.9351C57.0136 15.6846 57.0907 15.4341 57.1694 15.1853C57.3347 14.6534 57.5094 14.1026 57.8667 13.6976C58.405 13.0868 59.2612 12.9307 60.0325 13.0439C61.0225 13.188 61.9984 13.7731 62.4596 14.7392C62.9192 15.7052 62.724 17.0538 61.893 17.6561C63.0782 19.1369 63.4906 20.7875 63.426 22.7504C63.3615 24.7151 61.3971 26.5218 60.1175 27.9048C59.831 27.7161 59.5713 26.8307 59.7287 26.5081C59.8861 26.1873 59.661 25.8132 59.8546 25.5181C60.0482 25.223 60.2119 25.6931 60.0152 25.3997C59.8908 25.2144 60.3756 24.7854 60.1915 24.6756C59.299 24.1368 59.0015 22.9237 58.4396 21.9937C57.7628 20.8733 56.6043 20.1132 55.3797 19.9879C54.7045 19.9193 53.9915 20.0445 53.439 20.4718C52.885 20.899 52.5277 21.6626 52.6552 22.3884C52.323 22.0212 52.1578 21.4807 52.2192 20.9694C52.2821 20.4581 52.5702 19.9845 52.9794 19.7237C52.7307 18.828 52.9432 17.7968 53.5209 17.1036C54.0985 16.4104 56.4391 16.5288 57.2811 16.7107L57.2166 16.5888L57.215 16.5871Z" fill="#2F2E41"/>
<path d="M57.3472 20.0137C58.4631 20.1458 59.269 21.1993 59.949 22.1722C60.3409 22.7333 60.7517 23.3527 60.7423 24.0579C60.7328 24.77 60.2953 25.3825 60.0859 26.0586C59.7444 27.1636 60.0765 28.4762 60.8902 29.2329C60.0875 29.3993 59.2187 28.7422 59.0801 27.8636C58.918 26.841 59.6295 25.8544 59.546 24.8197C59.4721 23.9086 58.8141 23.2086 58.2538 22.5274C57.6934 21.8462 57.1693 20.9437 57.4259 20.0737L57.3472 20.0154L57.3472 20.0137Z" fill="#2F2E41"/>
</g>
<defs>
<clipPath id="clip0_256_5653">
<rect width="82.5829" height="67.43" rx="17" fill="white"/>
</clipPath>
</defs>
</svg>
