<svg width="58" height="10" viewBox="0 0 58 10" fill="none" xmlns="http://www.w3.org/2000/svg">
<g clip-path="url(#clip0_588_1427)">
<path d="M4.07162 0C6.47625 0 8.14648 1.86197 8.14648 4.64C8.14648 7.41803 6.47625 9.28 4.07162 9.28C1.66699 9.28 0 7.41735 0 4.64C0 1.86265 1.6644 0 4.07162 0ZM4.07162 7.82856C5.64664 7.82856 6.57728 6.66075 6.57728 4.64C6.57728 2.61925 5.64729 1.45144 4.07162 1.45144C2.49595 1.45144 1.5692 2.61925 1.5692 4.64C1.5692 6.66075 2.49336 7.82856 4.07162 7.82856Z" fill="#35EDDF"/>
<path d="M9.47607 1.84863H10.7538V6.0686C10.7538 7.3918 11.373 8.09411 12.4733 8.09411C13.5736 8.09411 14.1927 7.3918 14.1927 6.0686V1.84863H15.4705V6.12425C15.4705 8.0785 14.273 9.28023 12.4733 9.28023C10.6735 9.28023 9.47607 8.07918 9.47607 6.12425V1.84863Z" fill="#1B56BF"/>
<path d="M22.4506 3.18167H20.1917V9.27922H18.9139V3.18167H16.655V2.00098H22.4506V3.18167Z" fill="#1B56BF"/>
<path d="M23.6344 9.2799V2.00098H27.0325C28.5046 2.00098 29.4637 2.87157 29.4637 4.17169C29.4637 5.31982 28.7034 6.07777 27.5351 6.11374C28.0668 6.15445 28.4826 6.54869 28.7863 7.25643L29.6509 9.2799H28.2397L27.3699 7.26186C27.1271 6.69933 26.8499 6.5263 26.1628 6.5263H24.9116V9.2799H23.6338H23.6344ZM26.8771 5.38089C27.6983 5.38089 28.184 4.96086 28.184 4.24837C28.184 3.53588 27.7151 3.15928 26.8745 3.15928H24.9122V5.38089H26.8771Z" fill="#1B56BF"/>
<path d="M35.7276 2.00098V3.18167H32.259V5.07486H35.4407V6.22027H32.259V8.09852H35.8196V9.27922H30.9812V2.00098H35.7276Z" fill="#1B56BF"/>
<path d="M36.7805 9.2799L39.2726 2.00098H41.1138L43.5722 9.2799H42.2141L41.6649 7.56721H38.6677L38.1114 9.2799H36.7805ZM41.3009 6.42655L40.176 2.90957L39.0368 6.42655H41.3009Z" fill="#1B56BF"/>
<path d="M47.5103 8.09376C48.5478 8.09376 49.1935 7.46541 49.4046 6.25147H50.6772C50.4 8.13719 49.2103 9.27989 47.507 9.27989C45.5447 9.27989 44.1841 7.75787 44.1841 5.48809C44.1841 3.2183 45.5441 1.69629 47.507 1.69629C49.2097 1.69629 50.4 2.83899 50.6772 4.72471H49.4046C49.1935 3.51076 48.5471 2.88241 47.5103 2.88241C46.2228 2.88241 45.4677 3.83647 45.4677 5.48877C45.4677 7.14106 46.2228 8.09512 47.5103 8.09512V8.09376Z" fill="#1B56BF"/>
<path d="M58.0001 9.2799H56.7223V6.2413H53.3993V9.2799H52.1216V2.00098H53.3993V5.05518H56.7223V2.00098H58.0001V9.2799Z" fill="#1B56BF"/>
</g>
<defs>
<clipPath id="clip0_588_1427">
<rect width="58" height="9.28" fill="white"/>
</clipPath>
</defs>
</svg>
